<svg width="128" height="128" viewBox="0 0 128 128" fill="none" xmlns="http://www.w3.org/2000/svg">
<path d="M60.1695 13.0059C17.8548 12.4673 12.5551 49.2682 34.7935 50.2464C46.1734 50.747 54.224 38.723 68.0444 38.4135C82.6578 38.0861 80.3766 52.2455 72.0156 53.1664C66.9403 53.7253 60.0043 50.2863 51.8685 50.613C34.7323 51.3017 19.8043 63.9125 19.0381 81.3325C18.2716 98.7525 29.1463 109.314 45.8813 109.474C66.1323 109.667 74.0707 95.7556 74.0707 95.7556C74.0707 95.7556 74.1048 114.378 91.2006 115.738C100.571 116.483 109.171 109.819 109.935 99.2091C110.868 86.2454 101.524 85.0475 99.7566 50.6892C98.389 24.0985 84.1694 13.3114 60.1695 13.0059ZM51.35 84.5082C42.4212 84.1153 43.3963 67.9324 73.5967 69.2611C73.5967 69.2611 63.4594 85.041 51.35 84.5082Z" fill="#10B981"/>
</svg>
