<svg width="1617" height="968" viewBox="0 0 1617 968" fill="none" xmlns="http://www.w3.org/2000/svg">
<g clip-path="url(#clip0_100_8)">
<path d="M321.255 276.609C106.179 273.872 79.242 460.921 192.274 465.894C250.116 468.438 291.035 407.323 361.281 405.75C435.557 404.086 423.962 476.054 381.465 480.735C355.669 483.576 320.415 466.096 279.063 467.757C191.963 471.257 116.088 535.355 112.193 623.896C108.298 712.438 163.571 766.118 248.631 766.931C351.562 767.916 391.911 697.205 391.911 697.205C391.911 697.205 392.084 791.857 478.978 798.77C526.606 802.559 570.316 768.685 574.199 714.759C578.942 648.867 531.449 642.779 522.466 468.144C515.515 332.99 443.24 278.162 321.255 276.609ZM276.427 640.038C231.044 638.041 236 555.787 389.502 562.541C389.502 562.541 337.976 642.746 276.427 640.038Z" fill="#10B981"/>
<path d="M1312.73 582.469C1479.38 595.526 1565.14 310.614 1324.85 291.152C1028.23 267.13 900.047 792.597 1278.68 807.787C1475.15 815.668 1546.74 611.695 1434.73 602.623C1384.04 598.518 1352.35 655.39 1264.97 647.269C1107.26 632.612 1208.94 388.884 1313.76 397.097C1330.29 398.393 1343.76 406.827 1342.38 424.456C1339.77 457.88 1260.36 460.169 1255.62 520.707C1252.85 556.09 1278.83 579.812 1312.73 582.468L1312.73 582.469Z" fill="#71717A"/>
<path d="M834.971 366.657C743.975 363.569 714.005 439.912 714.005 439.912C703.522 329.104 778.13 243.475 772.314 182.008C768.576 142.498 734.592 113.219 694.889 111.871C618.868 109.291 545.398 215.102 567.191 445.449C583.11 613.708 655.855 791.735 761.24 795.313C815.919 797.169 826.216 751.721 826.216 751.721C826.216 751.721 845.819 793.152 902.134 795.064C975.74 797.562 1017.26 711.996 1005.96 592.558C994.655 473.12 943.083 370.327 834.971 366.657ZM836.726 682.31C774.031 689.752 713.527 464.384 776.645 456.892C844.848 448.797 900.693 674.717 836.726 682.31Z" fill="#F59E0B"/>
</g>
<defs>
<clipPath id="clip0_100_8">
<rect width="1617" height="968" fill="white"/>
</clipPath>
</defs>
</svg>
